<?xml version="1.0" encoding="UTF-8" standalone="no"?><!DOCTYPE svg PUBLIC "-//W3C//DTD SVG 1.1//EN" "http://www.w3.org/Graphics/SVG/1.1/DTD/svg11.dtd"><svg width="100%" height="100%" viewBox="0 0 420 303" version="1.1" xmlns="http://www.w3.org/2000/svg" xmlns:xlink="http://www.w3.org/1999/xlink" xml:space="preserve" xmlns:serif="http://www.serif.com/" style="fill-rule:evenodd;clip-rule:evenodd;stroke-linecap:round;stroke-miterlimit:1.5;"><g><path d="M396.76,22.535l-374.225,-0l-0,243.119c-0,1.824 1.48,3.304 3.304,3.304l368.457,0c1.36,0 2.464,-1.104 2.464,-2.464l0,-243.959Z" style="fill:none;stroke:#000;stroke-width:25px;"/><path d="M405.068,268.971l-390.675,-0c0,14.6 11.854,26.454 26.455,26.454l337.765,-0c14.601,-0 26.455,-11.854 26.455,-26.454Z" style="stroke:#000;stroke-width:8.33px;stroke-linecap:butt;"/><path d="M256.198,22.535l-93.101,-0l0,19.84c0,3.65 2.964,6.614 6.614,6.614l79.873,-0c3.65,-0 6.614,-2.964 6.614,-6.614l-0,-19.84Z" style="stroke:#000;stroke-width:8.33px;stroke-linejoin:round;"/><text x="127.494px" y="170.23px" style="font-family:'Minimo-Regular', 'Minimo';font-size:58.286px;">ﬂa<tspan x="190.151px " y="170.23px ">d</tspan>eni</text></g></svg>