<?xml version="1.0" encoding="UTF-8" standalone="no"?><!DOCTYPE svg PUBLIC "-//W3C//DTD SVG 1.1//EN" "http://www.w3.org/Graphics/SVG/1.1/DTD/svg11.dtd"><svg width="100%" height="100%" viewBox="0 0 2736 2736" version="1.1" xmlns="http://www.w3.org/2000/svg" xmlns:xlink="http://www.w3.org/1999/xlink" xml:space="preserve" xmlns:serif="http://www.serif.com/" style="fill-rule:evenodd;clip-rule:evenodd;stroke-linejoin:round;stroke-miterlimit:2;"><path d="M789.56,11.754l1156.56,0c434.318,0 789.475,350.797 789.475,779.302l0,1153.44c0,428.633 -355.157,779.302 -789.475,779.302l-1156.56,-0c-434.36,-0 -789.56,-350.669 -789.56,-779.302l-0,-1153.44c-0,-428.505 355.2,-779.302 789.56,-779.302Zm570.884,623.801c422.051,-0 764.513,342.505 764.513,764.555c-0,422.094 -342.462,764.555 -764.513,764.555c-422.179,0 -764.598,-342.461 -764.598,-764.555c0,-422.05 342.419,-764.555 764.598,-764.555Zm0,258.257c279.458,-0 506.298,226.755 506.298,506.298c0,279.544 -226.84,506.384 -506.298,506.384c-279.586,-0 -506.384,-226.84 -506.384,-506.384c0,-279.543 226.798,-506.298 506.384,-506.298Zm739.636,-364.218c68.561,-0 124.127,55.566 124.127,124.084c0.043,68.561 -55.566,124.17 -124.127,124.17c-68.518,0 -124.085,-55.609 -124.085,-124.17c0,-68.518 55.567,-124.084 124.085,-124.084Zm-1216.06,-296.299l967.673,-0c363.32,-0 660.517,295.7 660.517,657.012l-0,972.503c-0,361.312 -297.154,656.969 -660.517,656.969l-967.673,0c-363.321,0 -660.518,-295.657 -660.518,-656.969l0,-972.503c0,-361.312 297.197,-657.012 660.518,-657.012Z" style="fill:#0b9ecf;"/></svg>