<?xml version="1.0" encoding="UTF-8" standalone="no"?><!DOCTYPE svg PUBLIC "-//W3C//DTD SVG 1.1//EN" "http://www.w3.org/Graphics/SVG/1.1/DTD/svg11.dtd"><svg width="100%" height="100%" viewBox="0 0 1727 1727" version="1.1" xmlns="http://www.w3.org/2000/svg" xmlns:xlink="http://www.w3.org/1999/xlink" xml:space="preserve" xmlns:serif="http://www.serif.com/" style="fill-rule:evenodd;clip-rule:evenodd;stroke-linejoin:round;stroke-miterlimit:2;"><g><g><path d="M1415.37,138.085l-1104.68,-0c-95.279,-0 -172.606,77.327 -172.606,172.606l-0,1104.68c-0,95.278 77.327,172.606 172.606,172.606l1104.68,-0c95.278,-0 172.606,-77.328 172.606,-172.606l-0,-1104.68c-0,-95.279 -77.328,-172.606 -172.606,-172.606Zm-828.509,552.339l0,655.903l-207.127,-0l0,-655.903l207.127,-0Zm-207.127,-190.902c0,-48.33 41.426,-85.268 103.564,-85.268c62.138,0 101.147,36.938 103.563,85.268c0,48.329 -38.663,87.338 -103.563,87.338c-62.138,0 -103.564,-39.009 -103.564,-87.338Zm966.594,846.805l-207.128,-0l0,-345.212c0,-69.043 -34.521,-138.085 -120.824,-139.466l-2.762,-0c-83.541,-0 -118.062,71.114 -118.062,139.466l0,345.212l-207.127,-0l-0,-655.903l207.127,-0l0,88.374c0,0 66.626,-88.374 200.568,-88.374c137.049,-0 248.208,94.243 248.208,285.145l-0,370.758Z" style="fill:#0b9ecf;fill-rule:nonzero;"/></g></g></svg>