<?xml version="1.0" encoding="UTF-8" standalone="no"?><!DOCTYPE svg PUBLIC "-//W3C//DTD SVG 1.1//EN" "http://www.w3.org/Graphics/SVG/1.1/DTD/svg11.dtd"><svg width="100%" height="100%" viewBox="0 0 3495 3495" version="1.1" xmlns="http://www.w3.org/2000/svg" xmlns:xlink="http://www.w3.org/1999/xlink" xml:space="preserve" xmlns:serif="http://www.serif.com/" style="fill-rule:evenodd;clip-rule:evenodd;stroke-linejoin:round;stroke-miterlimit:2;"><g id="XMLID_834_"><path id="XMLID_835_" d="M920.808,1860.77l382.972,0l-0,1576.63c-0,31.128 25.222,56.35 56.35,56.35l649.343,0c31.129,0 56.352,-25.222 56.352,-56.35l-0,-1569.2l440.258,-0c28.627,-0 52.71,-21.481 55.979,-49.915l66.866,-580.437c1.837,-15.971 -3.223,-31.963 -13.908,-43.943c-10.695,-11.992 -26,-18.855 -42.06,-18.855l-507.113,0l-0,-363.847c-0,-109.681 59.055,-165.3 175.544,-165.3l331.569,0c31.128,0 56.351,-25.233 56.351,-56.35l0,-532.787c0,-31.129 -25.223,-56.351 -56.351,-56.351l-456.95,0c-3.223,-0.158 -10.379,-0.417 -20.928,-0.417c-79.285,0 -354.876,15.564 -572.571,215.836c-241.204,221.932 -207.676,487.661 -199.662,533.733l0,425.472l-402.041,-0c-31.128,-0 -56.352,25.223 -56.352,56.35l0,573.022c0,31.128 25.224,56.361 56.352,56.361l-0,-0.004Z" style="fill:#0b9ecf;fill-rule:nonzero;"/></g></svg>