<?xml version="1.0" encoding="UTF-8" standalone="no"?><!DOCTYPE svg PUBLIC "-//W3C//DTD SVG 1.1//EN" "http://www.w3.org/Graphics/SVG/1.1/DTD/svg11.dtd"><svg width="100%" height="100%" viewBox="0 0 512 285" version="1.1" xmlns="http://www.w3.org/2000/svg" xmlns:xlink="http://www.w3.org/1999/xlink" xml:space="preserve" xmlns:serif="http://www.serif.com/" style="fill-rule:evenodd;clip-rule:evenodd;stroke-linecap:round;stroke-linejoin:round;stroke-miterlimit:1.5;"><g><clipPath id="_clip1"><rect id="view-icon.svg" x="0" y="0" width="512" height="284.083"/></clipPath><g clip-path="url(#_clip1)"><path d="M4.375,130.458c13.253,-16.1 27.621,-31.249 43,-45.333c59.875,-54.5 127.958,-83.625 198.458,-85.125c70.5,-1.5 142.042,24.667 209.792,80.5c18.582,15.404 36.043,32.113 52.25,50c5.169,5.821 5.604,14.526 1.042,20.833c-18.03,25.7 -39.605,48.72 -64.084,68.375c-51.122,41.313 -114.813,64.023 -180.541,64.375c-66.206,-0.172 -130.72,-21.104 -184.417,-59.833c-28.73,-20.406 -54.417,-44.789 -76.292,-72.417c-5.028,-6.315 -4.69,-15.449 0.792,-21.375Zm65.125,-20.833c-11.115,10.099 -21.672,20.796 -31.625,32.042c17.945,20.996 38.404,39.706 60.917,55.708c48.139,34.781 105.985,53.626 165.375,53.875c58.273,-0.359 114.728,-20.524 160.041,-57.167c18.685,-14.991 35.475,-32.201 50,-51.25c-12.458,-13.071 -25.676,-25.398 -39.583,-36.916c-61.458,-50.667 -125.958,-74.334 -188.333,-73.042c-62.375,1.292 -122.834,27.458 -176.792,76.583l0,0.167Z"/></g><circle cx="256" cy="142.042" r="64.461" style="fill:none;stroke:#000;stroke-width:8.33px;"/></g></svg>