<?xml version="1.0" encoding="UTF-8" standalone="no"?><!DOCTYPE svg PUBLIC "-//W3C//DTD SVG 1.1//EN" "http://www.w3.org/Graphics/SVG/1.1/DTD/svg11.dtd"><svg width="100%" height="100%" viewBox="0 0 377 339" version="1.1" xmlns="http://www.w3.org/2000/svg" xmlns:xlink="http://www.w3.org/1999/xlink" xml:space="preserve" xmlns:serif="http://www.serif.com/" style="fill-rule:evenodd;clip-rule:evenodd;stroke-linejoin:round;stroke-miterlimit:2;"><path d="M187.512,66.84c23.887,-32.5 57.425,-44.657 88.434,-41.439c22.662,2.351 43.945,12.961 59.118,29.881c15.164,16.911 24.221,40.062 22.444,67.489c-3.428,52.883 -47.582,122.052 -167.79,192.409l-3.311,1.939l-3.272,-2.034c-119.99,-74.585 -162.28,-145.057 -164.139,-198.032c-1.016,-28.966 9.918,-52.799 26.961,-69.479c17.055,-16.691 40.258,-26.168 63.756,-26.427c29.341,-0.323 59.06,13.622 77.799,45.693Zm87.108,-29.3c-29.247,-3.035 -61.239,9.945 -82.414,44.55l-6.147,10.047l-4.955,-10.645c-15.771,-33.879 -43.783,-48.461 -71.293,-48.159c-20.218,0.223 -40.219,8.415 -54.962,22.843c-14.753,14.438 -24.213,35.177 -23.325,60.494c1.72,49.035 41.753,114.876 155.07,186.088c113.47,-67.182 155.213,-131.789 158.386,-180.751c1.554,-23.976 -6.257,-44.095 -19.35,-58.695c-13.083,-14.592 -31.448,-23.742 -51.01,-25.772Z" style="fill-rule:nonzero;stroke:#000;stroke-width:9.18px;"/></svg>